<svg width="22" height="22" viewBox="0 0 22 22" fill="none" xmlns="http://www.w3.org/2000/svg">
<g clip-path="url(#clip0_46_30)">
<path d="M16.1451 14.2233C17.4765 12.4065 18.0729 10.1539 17.8148 7.91634C17.5567 5.67875 16.4633 3.6211 14.7533 2.15506C13.0433 0.689027 10.8428 -0.0772849 8.59204 0.00944073C6.34129 0.0961663 4.20627 1.02953 2.61414 2.62281C1.022 4.21608 0.0901612 6.35177 0.00504621 8.60258C-0.0800688 10.8534 0.687817 13.0534 2.15508 14.7623C3.62234 16.4713 5.68076 17.5632 7.91854 17.8197C10.1563 18.0762 12.4084 17.4782 14.2243 16.1455H14.2229C14.2632 16.2005 14.3081 16.2532 14.3576 16.3036L19.6514 21.5974C19.9092 21.8554 20.259 22.0004 20.6237 22.0005C20.9885 22.0007 21.3383 21.8559 21.5963 21.5981C21.8543 21.3402 21.9994 20.9905 21.9995 20.6257C21.9996 20.261 21.8548 19.9111 21.597 19.6531L16.3033 14.3594C16.2541 14.3096 16.2013 14.265 16.1451 14.2233ZM16.4999 8.93776C16.4999 9.93088 16.3043 10.9143 15.9242 11.8318C15.5442 12.7493 14.9871 13.583 14.2849 14.2853C13.5826 14.9875 12.749 15.5445 11.8314 15.9246C10.9139 16.3047 9.93051 16.5003 8.93739 16.5003C7.94427 16.5003 6.96087 16.3047 6.04335 15.9246C5.12582 15.5445 4.29214 14.9875 3.5899 14.2853C2.88765 13.583 2.3306 12.7493 1.95055 11.8318C1.5705 10.9143 1.37489 9.93088 1.37489 8.93776C1.37489 6.93206 2.17165 5.00851 3.5899 3.59027C5.00814 2.17202 6.93169 1.37526 8.93739 1.37526C10.9431 1.37526 12.8666 2.17202 14.2849 3.59027C15.7031 5.00851 16.4999 6.93206 16.4999 8.93776Z" fill="#333333"/>
</g>
<defs>
<clipPath id="clip0_46_30">
<rect width="22" height="22" fill="white"/>
</clipPath>
</defs>
</svg>
