<svg width="24" height="25" viewBox="0 0 24 25" fill="none" xmlns="http://www.w3.org/2000/svg">
<path d="M11.6501 9.45121L14.6751 12.5476V12.3909C14.6751 11.6112 14.3735 10.8635 13.8366 10.3122C13.2998 9.76092 12.5716 9.45121 11.8123 9.45121H11.6501ZM7.54676 10.2351L9.02587 11.7539C8.97816 11.9597 8.94953 12.1655 8.94953 12.3909C8.94953 13.1705 9.25115 13.9182 9.78803 14.4695C10.3249 15.0208 11.0531 15.3305 11.8123 15.3305C12.0223 15.3305 12.2322 15.3011 12.4326 15.2521L13.9117 16.771C13.2724 17.0943 12.5662 17.2903 11.8123 17.2903C10.5469 17.2903 9.33329 16.7741 8.43849 15.8553C7.5437 14.9365 7.041 13.6903 7.041 12.3909C7.041 11.6168 7.23186 10.8916 7.54676 10.2351ZM2.26968 4.81635L4.4454 7.05049L4.87482 7.49144C3.30029 8.76529 2.05974 10.4311 1.31541 12.3909C2.96629 16.6926 7.041 19.74 11.8123 19.74C13.2914 19.74 14.7037 19.446 15.992 18.9169L16.4023 19.3285L19.1888 22.1897L20.4007 20.9453L3.4816 3.5719M11.8123 7.49144C13.0778 7.49144 14.2914 8.00763 15.1862 8.92645C16.081 9.84527 16.5837 11.0915 16.5837 12.3909C16.5837 13.018 16.4596 13.6255 16.2401 14.1743L19.0361 17.0453C20.4675 15.8205 21.6126 14.2135 22.3092 12.3909C20.6584 8.08917 16.5837 5.04173 11.8123 5.04173C10.4764 5.04173 9.19764 5.2867 7.99527 5.72765L10.066 7.8344C10.61 7.61882 11.1921 7.49144 11.8123 7.49144Z" fill="#999999" fill-opacity="0.6"/>
</svg>
