<svg width="23" height="24" viewBox="0 0 23 24" fill="none" xmlns="http://www.w3.org/2000/svg">
<g clip-path="url(#clip0_25_18)">
<path d="M11.45 17.052C10.4309 17.052 9.43475 16.7416 8.58742 16.1602C7.7401 15.5787 7.07969 14.7522 6.68971 13.7852C6.29973 12.8182 6.19769 11.7541 6.3965 10.7276C6.59531 9.70105 7.08604 8.75811 7.80663 8.01801C8.52722 7.27791 9.44531 6.77389 10.4448 6.5697C11.4443 6.36551 12.4803 6.47031 13.4218 6.87084C14.3633 7.27138 15.168 7.94967 15.7341 8.81994C16.3003 9.6902 16.6025 10.7134 16.6025 11.76C16.6025 13.1635 16.0596 14.5096 15.0934 15.502C14.1271 16.4945 12.8165 17.052 11.45 17.052ZM11.45 3.52802C3.435 3.52802 0 11.76 0 11.76C0 11.76 3.435 19.992 11.45 19.992C19.465 19.992 22.9 11.76 22.9 11.76C22.9 11.76 19.465 3.52802 11.45 3.52802Z" fill="#C2C2C2"/>
<path d="M11.45 14.7C13.0309 14.7 14.3125 13.3837 14.3125 11.76C14.3125 10.1363 13.0309 8.82001 11.45 8.82001C9.86908 8.82001 8.58749 10.1363 8.58749 11.76C8.58749 13.3837 9.86908 14.7 11.45 14.7Z" fill="#C2C2C2"/>
</g>
<defs>
<clipPath id="clip0_25_18">
<rect width="22.9" height="23.52" fill="white"/>
</clipPath>
</defs>
</svg>
